<svg xmlns="http://www.w3.org/2000/svg" viewBox="0 0 3000 720" width="100%" height="100%" role="img" aria-label="Ten numbered pairs of pastel fruit in two rows, each pod in the top row paired with the one below it, with a line from every pod to its buddy in the other row, trailing off into an ellipsis before pod 30.">


<style>
  .pod { cursor: pointer; }
  .pod:focus { outline: none; }
  .pod:focus-visible .hit { stroke: #b3aac9; stroke-width: 2.5; }
  @keyframes pod-shake {
    0%, 100% { transform: rotate(0deg)    translateY(0); }
    12%       { transform: rotate(-7deg)   translateY(-5px); }
    26%       { transform: rotate(6deg)    translateY(0); }
    40%       { transform: rotate(-5deg)   translateY(-4px); }
    54%       { transform: rotate(4deg)    translateY(0); }
    70%       { transform: rotate(-2.5deg) translateY(-2px); }
    86%       { transform: rotate(1.5deg)  translateY(0); }
  }
  .pod.shaking { animation: pod-shake 720ms cubic-bezier(.36,.07,.19,.97); }
  .pod-link { transition: opacity 220ms ease, stroke-width 220ms ease; }
  .pod-link.lit { opacity: .95; stroke-width: 3.4; }
  .smoothie { display: none; }
  .smoothie.show { display: block; }
  .smoothie .veil { cursor: pointer; }
  .cup-cap {
    font-family: ui-monospace, SFMono-Regular, Menlo, monospace;
    font-size: 30px; letter-spacing: 3px; fill: rgba(6, 29, 73, 0.42);
    pointer-events: none;
  }
  @keyframes cup-in {
    0%   { transform: scale(.18) translateY(70px); opacity: 0; }
    62%  { transform: scale(1.07) translateY(0);   opacity: 1; }
    100% { transform: scale(1)    translateY(0);   opacity: 1; }
  }
  .smoothie.show .cup { animation: cup-in 620ms cubic-bezier(.22,1.1,.36,1) both; }
  .smoothie.show .veil, .smoothie.show .cup-cap { animation: veil-in 300ms ease both; }
  @keyframes veil-in { from { opacity: 0; } to { opacity: .93; } }
  @keyframes veil-in-text { from { opacity: 0; } to { opacity: 1; } }
  .smoothie.show .cup-cap { animation: veil-in-text 420ms 260ms ease both; }
  @media (prefers-reduced-motion: reduce) {
    .pod.shaking { animation: none; }
    .pod-link { transition: none; }
    .smoothie.show .cup { animation: none; }
  }
</style>

<path class="pod-link" data-a="0" data-b="3" d="M 130.0 285.0 C 130.0 338.9, 952.0 330.1, 952.0 384.0" stroke="#b3aac9" stroke-width="1.9" fill="none" opacity=".48" stroke-linecap="round" pointer-events="none"/>
<path class="pod-link" data-a="1" data-b="2" d="M 404.0 285.0 C 404.0 314.7, 678.0 354.3, 678.0 384.0" stroke="#b3aac9" stroke-width="1.9" fill="none" opacity=".48" stroke-linecap="round" pointer-events="none"/>
<path class="pod-link" data-a="2" data-b="4" d="M 678.0 285.0 C 678.0 329.2, 1226.0 339.8, 1226.0 384.0" stroke="#b3aac9" stroke-width="1.9" fill="none" opacity=".48" stroke-linecap="round" pointer-events="none"/>
<path class="pod-link" data-a="3" data-b="6" d="M 952.0 285.0 C 952.0 343.7, 1774.0 325.3, 1774.0 384.0" stroke="#b3aac9" stroke-width="1.9" fill="none" opacity=".48" stroke-linecap="round" pointer-events="none"/>
<path class="pod-link" data-a="4" data-b="5" d="M 1226.0 285.0 C 1226.0 319.5, 1500.0 349.5, 1500.0 384.0" stroke="#b3aac9" stroke-width="1.9" fill="none" opacity=".48" stroke-linecap="round" pointer-events="none"/>
<path class="pod-link" data-a="5" data-b="9" d="M 1500.0 285.0 C 1500.0 348.6, 2870.0 320.4, 2870.0 384.0" stroke="#b3aac9" stroke-width="1.9" fill="none" opacity=".48" stroke-linecap="round" pointer-events="none"/>
<path class="pod-link" data-a="6" data-b="7" d="M 1774.0 285.0 C 1774.0 324.4, 2048.0 344.6, 2048.0 384.0" stroke="#b3aac9" stroke-width="1.9" fill="none" opacity=".48" stroke-linecap="round" pointer-events="none"/>
<path class="pod-link" data-a="7" data-b="0" d="M 2048.0 285.0 C 2048.0 353.4, 130.0 315.6, 130.0 384.0" stroke="#b3aac9" stroke-width="1.9" fill="none" opacity=".48" stroke-linecap="round" pointer-events="none"/>
<path class="pod-link" data-a="8" data-b="1" d="M 2322.0 285.0 C 2322.0 358.3, 404.0 310.7, 404.0 384.0" stroke="#b3aac9" stroke-width="1.9" fill="none" opacity=".48" stroke-linecap="round" pointer-events="none"/>
<path class="pod-link" data-a="9" data-b="8" d="M 2870.0 285.0 C 2870.0 334.1, 2322.0 334.9, 2322.0 384.0" stroke="#b3aac9" stroke-width="1.9" fill="none" opacity=".48" stroke-linecap="round" pointer-events="none"/>
<g class="pod" data-row="t" data-i="0" tabindex="0" role="button" style="transform-origin:130.0px 190px" aria-label="Pod 1, buddy of pod 4"><g transform="translate(130.0 190) scale(2.2059) translate(-130.0 -190)"><circle cx="130.0" cy="190" r="34" fill="#f6c3bd"/><path d="M 130.0 159 q -3 34 0 62" stroke="#e8a8a2" stroke-width="2.2" fill="none" opacity=".75"/><ellipse cx="117.0" cy="176" rx="9" ry="6" fill="#fff" opacity="0.45" transform="rotate(-25 117.0 176)"/><path d="M 130.0 160 q 2 -6.6 1 -11" stroke="#9a8a72" stroke-width="3.4" fill="none" stroke-linecap="round"/><path d="M 131.0 152 C 138.0 139, 153.0 137, 156.0 146 C 151.0 155, 138.0 156, 131.0 152 Z" fill="#a9c9a2" opacity=".9" transform="rotate(-1.66512873361361 131.0 152)"/></g><circle class="hit" cx="130.0" cy="190" r="91" fill="none" pointer-events="all"/></g>
<g class="pod" data-row="b" data-i="0" tabindex="0" role="button" style="transform-origin:130.0px 512px" aria-label="Pod 1, buddy of pod 8"><g transform="translate(130.0 512) scale(2.2059) translate(-130.0 -512)"><circle cx="117.5" cy="492.24" r="12.5" fill="#a9bfe0"/><ellipse cx="113.9" cy="488.24" rx="3.4" ry="2.4" fill="#fff" opacity=".38" transform="rotate(-25 113.9 488.24)"/><circle cx="142.5" cy="492.24" r="12.5" fill="#a9bfe0"/><ellipse cx="138.9" cy="488.24" rx="3.4" ry="2.4" fill="#fff" opacity=".38" transform="rotate(-25 138.9 488.24)"/><circle cx="105.0" cy="506.0" r="12.5" fill="#a9bfe0"/><ellipse cx="101.4" cy="502.0" rx="3.4" ry="2.4" fill="#fff" opacity=".38" transform="rotate(-25 101.4 502.0)"/><circle cx="130.0" cy="506.0" r="12.5" fill="#a9bfe0"/><ellipse cx="126.4" cy="502.0" rx="3.4" ry="2.4" fill="#fff" opacity=".38" transform="rotate(-25 126.4 502.0)"/><circle cx="155.0" cy="506.0" r="12.5" fill="#a9bfe0"/><ellipse cx="151.4" cy="502.0" rx="3.4" ry="2.4" fill="#fff" opacity=".38" transform="rotate(-25 151.4 502.0)"/><circle cx="117.5" cy="519.76" r="12.5" fill="#a9bfe0"/><ellipse cx="113.9" cy="515.76" rx="3.4" ry="2.4" fill="#fff" opacity=".38" transform="rotate(-25 113.9 515.76)"/><circle cx="142.5" cy="519.76" r="12.5" fill="#a9bfe0"/><ellipse cx="138.9" cy="515.76" rx="3.4" ry="2.4" fill="#fff" opacity=".38" transform="rotate(-25 138.9 515.76)"/><circle cx="130.0" cy="532.66" r="12.5" fill="#a9bfe0"/><ellipse cx="126.4" cy="528.66" rx="3.4" ry="2.4" fill="#fff" opacity=".38" transform="rotate(-25 126.4 528.66)"/><path d="M 130.0 482 q 2 -5.3999999999999995 1 -9" stroke="#9a8a72" stroke-width="3.4" fill="none" stroke-linecap="round"/><path d="M 131.0 476 C 138.0 463, 153.0 461, 156.0 470 C 151.0 479, 138.0 480, 131.0 476 Z" fill="#a9c9a2" opacity=".9" transform="rotate(9.587959598518896 131.0 476)"/></g><circle class="hit" cx="130.0" cy="512" r="91" fill="none" pointer-events="all"/></g>
<text x="130.0" y="639" text-anchor="middle" fill="#a7a3b4" font-family="ui-monospace, SFMono-Regular, Menlo, monospace" font-size="30" letter-spacing="2" pointer-events="none">1</text>
<g class="pod" data-row="t" data-i="1" tabindex="0" role="button" style="transform-origin:404.0px 190px" aria-label="Pod 2, buddy of pod 3"><g transform="translate(404.0 190) scale(2.2059) translate(-404.0 -190)"><path d="M 372.0 174 C 372.0 154, 436.0 154, 436.0 174 C 436.0 198, 417.44 218, 404.0 224 C 390.56 218, 372.0 198, 372.0 174 Z" fill="#f09a98"/><ellipse cx="381.5" cy="178" rx="2.1" ry="3" fill="#fff" opacity=".62" transform="rotate(-12 381.5 178)"/><ellipse cx="396.5" cy="178" rx="2.1" ry="3" fill="#fff" opacity=".62" transform="rotate(-12 396.5 178)"/><ellipse cx="411.5" cy="178" rx="2.1" ry="3" fill="#fff" opacity=".62" transform="rotate(-12 411.5 178)"/><ellipse cx="426.5" cy="178" rx="2.1" ry="3" fill="#fff" opacity=".62" transform="rotate(-12 426.5 178)"/><ellipse cx="384.5" cy="190" rx="2.1" ry="3" fill="#fff" opacity=".62" transform="rotate(-12 384.5 190)"/><ellipse cx="397.5" cy="190" rx="2.1" ry="3" fill="#fff" opacity=".62" transform="rotate(-12 397.5 190)"/><ellipse cx="410.5" cy="190" rx="2.1" ry="3" fill="#fff" opacity=".62" transform="rotate(-12 410.5 190)"/><ellipse cx="423.5" cy="190" rx="2.1" ry="3" fill="#fff" opacity=".62" transform="rotate(-12 423.5 190)"/><ellipse cx="393.0" cy="202" rx="2.1" ry="3" fill="#fff" opacity=".62" transform="rotate(-12 393.0 202)"/><ellipse cx="404.0" cy="202" rx="2.1" ry="3" fill="#fff" opacity=".62" transform="rotate(-12 404.0 202)"/><ellipse cx="415.0" cy="202" rx="2.1" ry="3" fill="#fff" opacity=".62" transform="rotate(-12 415.0 202)"/><ellipse cx="400.0" cy="212" rx="2.1" ry="3" fill="#fff" opacity=".62" transform="rotate(-12 400.0 212)"/><ellipse cx="408.0" cy="212" rx="2.1" ry="3" fill="#fff" opacity=".62" transform="rotate(-12 408.0 212)"/><ellipse cx="404.0" cy="165" rx="15" ry="6" fill="#8fbb86" transform="rotate(-74.83935743598175 404.0 172)" opacity=".95"/><ellipse cx="404.0" cy="165" rx="15" ry="6" fill="#8fbb86" transform="rotate(-37.33935743598175 404.0 172)" opacity=".95"/><ellipse cx="404.0" cy="165" rx="15" ry="6" fill="#8fbb86" transform="rotate(0.16064256401824453 404.0 172)" opacity=".95"/><ellipse cx="404.0" cy="165" rx="15" ry="6" fill="#8fbb86" transform="rotate(37.66064256401825 404.0 172)" opacity=".95"/><ellipse cx="404.0" cy="165" rx="15" ry="6" fill="#8fbb86" transform="rotate(75.16064256401825 404.0 172)" opacity=".95"/><path d="M 404.0 160 q 2 -6.6 1 -11" stroke="#9a8a72" stroke-width="3.4" fill="none" stroke-linecap="round"/></g><circle class="hit" cx="404.0" cy="190" r="91" fill="none" pointer-events="all"/></g>
<g class="pod" data-row="b" data-i="1" tabindex="0" role="button" style="transform-origin:404.0px 512px" aria-label="Pod 2, buddy of pod 9"><g transform="translate(404.0 512) scale(2.2059) translate(-404.0 -512)"><circle cx="404.0" cy="512" r="34" fill="#b3a07c"/><circle cx="404.0" cy="512" r="29" fill="#c6da9d"/><ellipse cx="404.0" cy="512" rx="9" ry="11" fill="#f2f6e8"/><ellipse cx="426.9" cy="513.6" rx="1.9" ry="3" fill="#4a4636" opacity=".72" transform="rotate(94 426.9 513.6)"/><ellipse cx="424.0" cy="523.4" rx="1.9" ry="3" fill="#4a4636" opacity=".72" transform="rotate(120 424.0 523.4)"/><ellipse cx="417.1" cy="530.9" rx="1.9" ry="3" fill="#4a4636" opacity=".72" transform="rotate(145 417.1 530.9)"/><ellipse cx="407.6" cy="534.7" rx="1.9" ry="3" fill="#4a4636" opacity=".72" transform="rotate(171 407.6 534.7)"/><ellipse cx="397.4" cy="534.0" rx="1.9" ry="3" fill="#4a4636" opacity=".72" transform="rotate(197 397.4 534.0)"/><ellipse cx="388.5" cy="529.0" rx="1.9" ry="3" fill="#4a4636" opacity=".72" transform="rotate(222 388.5 529.0)"/><ellipse cx="382.6" cy="520.5" rx="1.9" ry="3" fill="#4a4636" opacity=".72" transform="rotate(248 382.6 520.5)"/><ellipse cx="381.1" cy="510.4" rx="1.9" ry="3" fill="#4a4636" opacity=".72" transform="rotate(274 381.1 510.4)"/><ellipse cx="384.0" cy="500.6" rx="1.9" ry="3" fill="#4a4636" opacity=".72" transform="rotate(300 384.0 500.6)"/><ellipse cx="390.9" cy="493.1" rx="1.9" ry="3" fill="#4a4636" opacity=".72" transform="rotate(325 390.9 493.1)"/><ellipse cx="400.4" cy="489.3" rx="1.9" ry="3" fill="#4a4636" opacity=".72" transform="rotate(351 400.4 489.3)"/><ellipse cx="410.6" cy="490.0" rx="1.9" ry="3" fill="#4a4636" opacity=".72" transform="rotate(377 410.6 490.0)"/><ellipse cx="419.5" cy="495.0" rx="1.9" ry="3" fill="#4a4636" opacity=".72" transform="rotate(402 419.5 495.0)"/><ellipse cx="425.4" cy="503.5" rx="1.9" ry="3" fill="#4a4636" opacity=".72" transform="rotate(428 425.4 503.5)"/></g><circle class="hit" cx="404.0" cy="512" r="91" fill="none" pointer-events="all"/></g>
<text x="404.0" y="639" text-anchor="middle" fill="#a7a3b4" font-family="ui-monospace, SFMono-Regular, Menlo, monospace" font-size="30" letter-spacing="2" pointer-events="none">2</text>
<g class="pod" data-row="t" data-i="2" tabindex="0" role="button" style="transform-origin:678.0px 190px" aria-label="Pod 3, buddy of pod 5"><g transform="translate(678.0 190) scale(2.2059) translate(-678.0 -190)"><circle cx="678.0" cy="190" r="34" fill="#cfe0b6"/><path d="M 665.0 162 q 4 34 0 56" stroke="#b6cfa2" stroke-width="2" fill="none" opacity=".8"/><path d="M 678.0 162 q 4 34 0 56" stroke="#b6cfa2" stroke-width="2" fill="none" opacity=".8"/><path d="M 691.0 162 q 4 34 0 56" stroke="#b6cfa2" stroke-width="2" fill="none" opacity=".8"/><ellipse cx="664.0" cy="175" rx="9" ry="6" fill="#fff" opacity="0.45" transform="rotate(-25 664.0 175)"/><path d="M 678.0 160 q 2 -6.6 1 -11" stroke="#9a8a72" stroke-width="3.4" fill="none" stroke-linecap="round"/><path d="M 679.0 152 C 686.0 139, 701.0 137, 704.0 146 C 699.0 155, 686.0 156, 679.0 152 Z" fill="#9dbf95" opacity=".9" transform="rotate(-0.0063517382098332575 679.0 152)"/></g><circle class="hit" cx="678.0" cy="190" r="91" fill="none" pointer-events="all"/></g>
<g class="pod" data-row="b" data-i="2" tabindex="0" role="button" style="transform-origin:678.0px 512px" aria-label="Pod 3, buddy of pod 2"><g transform="translate(678.0 512) scale(2.2059) translate(-678.0 -512)"><g transform="rotate(21.137146723232576 678.0 512)"><path d="M 644.0 512 Q 653.52 488, 678.0 488 Q 702.48 488, 712.0 512 Q 702.48 536, 678.0 536 Q 653.52 536, 644.0 512 Z" fill="#f0dc9a"/><circle cx="714.0" cy="512" r="4" fill="#f0dc9a"/><ellipse cx="674.0" cy="504" rx="9" ry="5.5" fill="#fff" opacity="0.45" transform="rotate(-25 674.0 504)"/><path d="M 712.0 510 C 719.0 497, 734.0 495, 737.0 504 C 732.0 513, 719.0 514, 712.0 510 Z" fill="#9dbf95" opacity=".9" transform="rotate(-52 712.0 510)"/></g></g><circle class="hit" cx="678.0" cy="512" r="91" fill="none" pointer-events="all"/></g>
<text x="678.0" y="639" text-anchor="middle" fill="#a7a3b4" font-family="ui-monospace, SFMono-Regular, Menlo, monospace" font-size="30" letter-spacing="2" pointer-events="none">3</text>
<g class="pod" data-row="t" data-i="3" tabindex="0" role="button" style="transform-origin:952.0px 190px" aria-label="Pod 4, buddy of pod 7"><g transform="translate(952.0 190) scale(2.2059) translate(-952.0 -190)"><circle cx="939.5" cy="170.24" r="12.5" fill="#c7b5dd"/><ellipse cx="935.9" cy="166.24" rx="3.4" ry="2.4" fill="#fff" opacity=".38" transform="rotate(-25 935.9 166.24)"/><circle cx="964.5" cy="170.24" r="12.5" fill="#c7b5dd"/><ellipse cx="960.9" cy="166.24" rx="3.4" ry="2.4" fill="#fff" opacity=".38" transform="rotate(-25 960.9 166.24)"/><circle cx="927.0" cy="184.0" r="12.5" fill="#c7b5dd"/><ellipse cx="923.4" cy="180.0" rx="3.4" ry="2.4" fill="#fff" opacity=".38" transform="rotate(-25 923.4 180.0)"/><circle cx="952.0" cy="184.0" r="12.5" fill="#c7b5dd"/><ellipse cx="948.4" cy="180.0" rx="3.4" ry="2.4" fill="#fff" opacity=".38" transform="rotate(-25 948.4 180.0)"/><circle cx="977.0" cy="184.0" r="12.5" fill="#c7b5dd"/><ellipse cx="973.4" cy="180.0" rx="3.4" ry="2.4" fill="#fff" opacity=".38" transform="rotate(-25 973.4 180.0)"/><circle cx="939.5" cy="197.76" r="12.5" fill="#c7b5dd"/><ellipse cx="935.9" cy="193.76" rx="3.4" ry="2.4" fill="#fff" opacity=".38" transform="rotate(-25 935.9 193.76)"/><circle cx="964.5" cy="197.76" r="12.5" fill="#c7b5dd"/><ellipse cx="960.9" cy="193.76" rx="3.4" ry="2.4" fill="#fff" opacity=".38" transform="rotate(-25 960.9 193.76)"/><circle cx="952.0" cy="210.66" r="12.5" fill="#c7b5dd"/><ellipse cx="948.4" cy="206.66" rx="3.4" ry="2.4" fill="#fff" opacity=".38" transform="rotate(-25 948.4 206.66)"/><path d="M 952.0 160 q 2 -5.3999999999999995 1 -9" stroke="#9a8a72" stroke-width="3.4" fill="none" stroke-linecap="round"/><path d="M 953.0 154 C 960.0 141, 975.0 139, 978.0 148 C 973.0 157, 960.0 158, 953.0 154 Z" fill="#a9c9a2" opacity=".9" transform="rotate(-1.1947633152123842 953.0 154)"/></g><circle class="hit" cx="952.0" cy="190" r="91" fill="none" pointer-events="all"/></g>
<g class="pod" data-row="b" data-i="3" tabindex="0" role="button" style="transform-origin:952.0px 512px" aria-label="Pod 4, buddy of pod 1"><g transform="translate(952.0 512) scale(2.2059) translate(-952.0 -512)"><circle cx="952.0" cy="512" r="34" fill="#c3a8c8"/><ellipse cx="939.0" cy="498" rx="9" ry="6" fill="#fff" opacity="0.45" transform="rotate(-25 939.0 498)"/><path d="M 952.0 482 q 2 -6.6 1 -11" stroke="#9a8a72" stroke-width="3.4" fill="none" stroke-linecap="round"/><path d="M 953.0 474 C 960.0 461, 975.0 459, 978.0 468 C 973.0 477, 960.0 478, 953.0 474 Z" fill="#9dbf95" opacity=".9" transform="rotate(-6.211438809411196 953.0 474)"/></g><circle class="hit" cx="952.0" cy="512" r="91" fill="none" pointer-events="all"/></g>
<text x="952.0" y="639" text-anchor="middle" fill="#a7a3b4" font-family="ui-monospace, SFMono-Regular, Menlo, monospace" font-size="30" letter-spacing="2" pointer-events="none">4</text>
<g class="pod" data-row="t" data-i="4" tabindex="0" role="button" style="transform-origin:1226.0px 190px" aria-label="Pod 5, buddy of pod 6"><g transform="translate(1226.0 190) scale(2.2059) translate(-1226.0 -190)"><circle cx="1226.0" cy="190" r="34" fill="#f8cb92"/><ellipse cx="1213.0" cy="176" rx="9" ry="6" fill="#fff" opacity="0.45" transform="rotate(-25 1213.0 176)"/><path d="M 1226.0 160 q 2 -6.6 1 -11" stroke="#9a8a72" stroke-width="3.4" fill="none" stroke-linecap="round"/><path d="M 1227.0 152 C 1234.0 139, 1249.0 137, 1252.0 146 C 1247.0 155, 1234.0 156, 1227.0 152 Z" fill="#a9c9a2" opacity=".9" transform="rotate(13.934373612966361 1227.0 152)"/></g><circle class="hit" cx="1226.0" cy="190" r="91" fill="none" pointer-events="all"/></g>
<g class="pod" data-row="b" data-i="4" tabindex="0" role="button" style="transform-origin:1226.0px 512px" aria-label="Pod 5, buddy of pod 3"><g transform="translate(1226.0 512) scale(2.2059) translate(-1226.0 -512)"><circle cx="1226.0" cy="512" r="34" fill="#aecb8f"/><circle cx="1226.0" cy="512" r="29.5" fill="#eef4e4"/><path d="M 1226.0 512 L 1252.7 516.2 A 27 27 0 0 1 1245.8 530.4 Z" fill="#c9e0a6"/><path d="M 1226.0 512 L 1243.8 532.3 A 27 27 0 0 1 1229.3 538.8 Z" fill="#c9e0a6"/><path d="M 1226.0 512 L 1226.5 539.0 A 27 27 0 0 1 1211.3 534.7 Z" fill="#c9e0a6"/><path d="M 1226.0 512 L 1209.1 533.0 A 27 27 0 0 1 1200.2 519.9 Z" fill="#c9e0a6"/><path d="M 1226.0 512 L 1199.5 517.2 A 27 27 0 0 1 1201.1 501.5 Z" fill="#c9e0a6"/><path d="M 1226.0 512 L 1202.4 499.0 A 27 27 0 0 1 1213.7 488.0 Z" fill="#c9e0a6"/><path d="M 1226.0 512 L 1216.3 486.8 A 27 27 0 0 1 1232.0 485.7 Z" fill="#c9e0a6"/><path d="M 1226.0 512 L 1234.7 486.5 A 27 27 0 0 1 1247.5 495.7 Z" fill="#c9e0a6"/><path d="M 1226.0 512 L 1249.1 498.0 A 27 27 0 0 1 1253.0 513.4 Z" fill="#c9e0a6"/><circle cx="1226.0" cy="512" r="3" fill="#eef4e4"/></g><circle class="hit" cx="1226.0" cy="512" r="91" fill="none" pointer-events="all"/></g>
<text x="1226.0" y="639" text-anchor="middle" fill="#a7a3b4" font-family="ui-monospace, SFMono-Regular, Menlo, monospace" font-size="30" letter-spacing="2" pointer-events="none">5</text>
<g class="pod" data-row="t" data-i="5" tabindex="0" role="button" style="transform-origin:1500.0px 190px" aria-label="Pod 6, buddy of pod 30"><g transform="translate(1500.0 190) scale(2.2059) translate(-1500.0 -190)"><g transform="rotate(22.381508846450032 1500.0 190)"><path d="M 1466.0 190 Q 1475.52 166, 1500.0 166 Q 1524.48 166, 1534.0 190 Q 1524.48 214, 1500.0 214 Q 1475.52 214, 1466.0 190 Z" fill="#f5e5a5"/><circle cx="1536.0" cy="190" r="4" fill="#f5e5a5"/><ellipse cx="1496.0" cy="182" rx="9" ry="5.5" fill="#fff" opacity="0.45" transform="rotate(-25 1496.0 182)"/><path d="M 1534.0 188 C 1541.0 175, 1556.0 173, 1559.0 182 C 1554.0 191, 1541.0 192, 1534.0 188 Z" fill="#a9c9a2" opacity=".9" transform="rotate(-52 1534.0 188)"/></g></g><circle class="hit" cx="1500.0" cy="190" r="91" fill="none" pointer-events="all"/></g>
<g class="pod" data-row="b" data-i="5" tabindex="0" role="button" style="transform-origin:1500.0px 512px" aria-label="Pod 6, buddy of pod 5"><g transform="translate(1500.0 512) scale(2.2059) translate(-1500.0 -512)"><circle cx="1487.5" cy="492.24" r="12.5" fill="#eda8a8"/><ellipse cx="1483.9" cy="488.24" rx="3.4" ry="2.4" fill="#fff" opacity=".38" transform="rotate(-25 1483.9 488.24)"/><circle cx="1512.5" cy="492.24" r="12.5" fill="#eda8a8"/><ellipse cx="1508.9" cy="488.24" rx="3.4" ry="2.4" fill="#fff" opacity=".38" transform="rotate(-25 1508.9 488.24)"/><circle cx="1475.0" cy="506.0" r="12.5" fill="#eda8a8"/><ellipse cx="1471.4" cy="502.0" rx="3.4" ry="2.4" fill="#fff" opacity=".38" transform="rotate(-25 1471.4 502.0)"/><circle cx="1500.0" cy="506.0" r="12.5" fill="#eda8a8"/><ellipse cx="1496.4" cy="502.0" rx="3.4" ry="2.4" fill="#fff" opacity=".38" transform="rotate(-25 1496.4 502.0)"/><circle cx="1525.0" cy="506.0" r="12.5" fill="#eda8a8"/><ellipse cx="1521.4" cy="502.0" rx="3.4" ry="2.4" fill="#fff" opacity=".38" transform="rotate(-25 1521.4 502.0)"/><circle cx="1487.5" cy="519.76" r="12.5" fill="#eda8a8"/><ellipse cx="1483.9" cy="515.76" rx="3.4" ry="2.4" fill="#fff" opacity=".38" transform="rotate(-25 1483.9 515.76)"/><circle cx="1512.5" cy="519.76" r="12.5" fill="#eda8a8"/><ellipse cx="1508.9" cy="515.76" rx="3.4" ry="2.4" fill="#fff" opacity=".38" transform="rotate(-25 1508.9 515.76)"/><circle cx="1500.0" cy="532.66" r="12.5" fill="#eda8a8"/><ellipse cx="1496.4" cy="528.66" rx="3.4" ry="2.4" fill="#fff" opacity=".38" transform="rotate(-25 1496.4 528.66)"/><path d="M 1500.0 482 q 2 -5.3999999999999995 1 -9" stroke="#9a8a72" stroke-width="3.4" fill="none" stroke-linecap="round"/><path d="M 1501.0 476 C 1508.0 463, 1523.0 461, 1526.0 470 C 1521.0 479, 1508.0 480, 1501.0 476 Z" fill="#a9c9a2" opacity=".9" transform="rotate(5.818669401942586 1501.0 476)"/></g><circle class="hit" cx="1500.0" cy="512" r="91" fill="none" pointer-events="all"/></g>
<text x="1500.0" y="639" text-anchor="middle" fill="#a7a3b4" font-family="ui-monospace, SFMono-Regular, Menlo, monospace" font-size="30" letter-spacing="2" pointer-events="none">6</text>
<g class="pod" data-row="t" data-i="6" tabindex="0" role="button" style="transform-origin:1774.0px 190px" aria-label="Pod 7, buddy of pod 8"><g transform="translate(1774.0 190) scale(2.2059) translate(-1774.0 -190)"><path d="M 1774.0 164 C 1782.0 154, 1808.0 160, 1808.0 188 C 1808.0 216, 1792.0 226, 1774.0 220 C 1756.0 226, 1740.0 216, 1740.0 188 C 1740.0 160, 1766.0 154, 1774.0 164 Z" fill="#eda6a6"/><path d="M 1770.0 218 q 4 -14 2 -26" stroke="#dc9090" stroke-width="2" fill="none" opacity=".5"/><ellipse cx="1760.0" cy="178" rx="9" ry="6" fill="#fff" opacity="0.45" transform="rotate(-25 1760.0 178)"/><path d="M 1774.0 165 q 2 -7.8 1 -13" stroke="#9a8a72" stroke-width="3.4" fill="none" stroke-linecap="round"/><path d="M 1776.0 154 C 1783.0 141, 1798.0 139, 1801.0 148 C 1796.0 157, 1783.0 158, 1776.0 154 Z" fill="#a9c9a2" opacity=".9" transform="rotate(-5.172237923564603 1776.0 154)"/></g><circle class="hit" cx="1774.0" cy="190" r="91" fill="none" pointer-events="all"/></g>
<g class="pod" data-row="b" data-i="6" tabindex="0" role="button" style="transform-origin:1774.0px 512px" aria-label="Pod 7, buddy of pod 4"><g transform="translate(1774.0 512) scale(2.2059) translate(-1774.0 -512)"><path d="M 1774.0 480 c 13 0 16 13 11 21 c 11 6 16 15 16 23 c 0 14 -13 21 -27 21 c -14 0 -27 -7 -27 -21 c 0 -8 5 -17 16 -23 c -5 -8 -2 -21 11 -21 Z" fill="#e9e3ae"/><ellipse cx="1762.0" cy="521" rx="8" ry="5.5" fill="#fff" opacity="0.45" transform="rotate(-25 1762.0 521)"/><path d="M 1774.0 481 q 2 -6.6 1 -11" stroke="#9a8a72" stroke-width="3.4" fill="none" stroke-linecap="round"/><path d="M 1775.0 473 C 1782.0 460, 1797.0 458, 1800.0 467 C 1795.0 476, 1782.0 477, 1775.0 473 Z" fill="#9dbf95" opacity=".9" transform="rotate(-7.569354754978644 1775.0 473)"/></g><circle class="hit" cx="1774.0" cy="512" r="91" fill="none" pointer-events="all"/></g>
<text x="1774.0" y="639" text-anchor="middle" fill="#a7a3b4" font-family="ui-monospace, SFMono-Regular, Menlo, monospace" font-size="30" letter-spacing="2" pointer-events="none">7</text>
<g class="pod" data-row="t" data-i="7" tabindex="0" role="button" style="transform-origin:2048.0px 190px" aria-label="Pod 8, buddy of pod 1"><g transform="translate(2048.0 190) scale(2.2059) translate(-2048.0 -190)"><path d="M 2048.0 158 c 13 0 16 13 11 21 c 11 6 16 15 16 23 c 0 14 -13 21 -27 21 c -14 0 -27 -7 -27 -21 c 0 -8 5 -17 16 -23 c -5 -8 -2 -21 11 -21 Z" fill="#dde5c2"/><ellipse cx="2036.0" cy="199" rx="8" ry="5.5" fill="#fff" opacity="0.45" transform="rotate(-25 2036.0 199)"/><path d="M 2048.0 159 q 2 -6.6 1 -11" stroke="#9a8a72" stroke-width="3.4" fill="none" stroke-linecap="round"/><path d="M 2049.0 151 C 2056.0 138, 2071.0 136, 2074.0 145 C 2069.0 154, 2056.0 155, 2049.0 151 Z" fill="#9dbf95" opacity=".9" transform="rotate(-5.90688147520234 2049.0 151)"/></g><circle class="hit" cx="2048.0" cy="190" r="91" fill="none" pointer-events="all"/></g>
<g class="pod" data-row="b" data-i="7" tabindex="0" role="button" style="transform-origin:2048.0px 512px" aria-label="Pod 8, buddy of pod 7"><g transform="translate(2048.0 512) scale(2.2059) translate(-2048.0 -512)"><ellipse cx="2048.0" cy="515" rx="34" ry="28" fill="#eaa070"/><ellipse cx="2035.0" cy="506" rx="9" ry="6" fill="#fff" opacity="0.45" transform="rotate(-25 2035.0 506)"/><ellipse cx="2048.0" cy="486" rx="17" ry="7.5" fill="#9dbf95" transform="rotate(-12.033742012322074 2048.0 486)" opacity=".93"/><ellipse cx="2048.0" cy="486" rx="17" ry="7.5" fill="#9dbf95" transform="rotate(47.96625798767793 2048.0 486)" opacity=".93"/><ellipse cx="2048.0" cy="486" rx="17" ry="7.5" fill="#9dbf95" transform="rotate(107.96625798767792 2048.0 486)" opacity=".93"/><path d="M 2048.0 480 q 2 -5.3999999999999995 1 -9" stroke="#9a8a72" stroke-width="3.4" fill="none" stroke-linecap="round"/></g><circle class="hit" cx="2048.0" cy="512" r="91" fill="none" pointer-events="all"/></g>
<text x="2048.0" y="639" text-anchor="middle" fill="#a7a3b4" font-family="ui-monospace, SFMono-Regular, Menlo, monospace" font-size="30" letter-spacing="2" pointer-events="none">8</text>
<g class="pod" data-row="t" data-i="8" tabindex="0" role="button" style="transform-origin:2322.0px 190px" aria-label="Pod 9, buddy of pod 2"><g transform="translate(2322.0 190) scale(2.2059) translate(-2322.0 -190)"><circle cx="2322.0" cy="190" r="34" fill="#dfa7b5"/><path d="M 2322.0 159 q -3 34 0 62" stroke="#cf94a4" stroke-width="2.2" fill="none" opacity=".75"/><ellipse cx="2309.0" cy="176" rx="9" ry="6" fill="#fff" opacity="0.45" transform="rotate(-25 2309.0 176)"/><path d="M 2322.0 160 q 2 -6.6 1 -11" stroke="#9a8a72" stroke-width="3.4" fill="none" stroke-linecap="round"/><path d="M 2323.0 152 C 2330.0 139, 2345.0 137, 2348.0 146 C 2343.0 155, 2330.0 156, 2323.0 152 Z" fill="#a9c9a2" opacity=".9" transform="rotate(7.456060819491398 2323.0 152)"/></g><circle class="hit" cx="2322.0" cy="190" r="91" fill="none" pointer-events="all"/></g>
<g class="pod" data-row="b" data-i="8" tabindex="0" role="button" style="transform-origin:2322.0px 512px" aria-label="Pod 9, buddy of pod 30"><g transform="translate(2322.0 512) scale(2.2059) translate(-2322.0 -512)"><path d="M 2324.0 480 C 2314.0 492, 2306.0 506, 2305.0 518" stroke="#9a8a72" stroke-width="3.4" fill="none" stroke-linecap="round"/><path d="M 2324.0 480 C 2332.0 492, 2339.0 504, 2340.0 514" stroke="#9a8a72" stroke-width="3.4" fill="none" stroke-linecap="round"/><path d="M 2326.0 480 C 2333.0 467, 2348.0 465, 2351.0 474 C 2346.0 483, 2333.0 484, 2326.0 480 Z" fill="#8fbb86" opacity=".9" transform="rotate(-30.836641638684675 2326.0 480)"/><circle cx="2305.0" cy="528" r="17" fill="#e8919b"/><circle cx="2340.0" cy="524" r="15" fill="#df8391"/><ellipse cx="2299.0" cy="522" rx="5" ry="3.4" fill="#fff" opacity=".4" transform="rotate(-25 2299.0 522)"/></g><circle class="hit" cx="2322.0" cy="512" r="91" fill="none" pointer-events="all"/></g>
<text x="2322.0" y="639" text-anchor="middle" fill="#a7a3b4" font-family="ui-monospace, SFMono-Regular, Menlo, monospace" font-size="30" letter-spacing="2" pointer-events="none">9</text>
<g class="pod" data-row="t" data-i="9" tabindex="0" role="button" style="transform-origin:2870.0px 190px" aria-label="Pod 30, buddy of pod 9"><g transform="translate(2870.0 190) scale(2.2059) translate(-2870.0 -190)"><ellipse cx="2870.0" cy="193" rx="34" ry="28" fill="#f3b489"/><ellipse cx="2857.0" cy="184" rx="9" ry="6" fill="#fff" opacity="0.45" transform="rotate(-25 2857.0 184)"/><ellipse cx="2870.0" cy="164" rx="17" ry="7.5" fill="#9dbf95" transform="rotate(9.704341412673003 2870.0 164)" opacity=".93"/><ellipse cx="2870.0" cy="164" rx="17" ry="7.5" fill="#9dbf95" transform="rotate(69.704341412673 2870.0 164)" opacity=".93"/><ellipse cx="2870.0" cy="164" rx="17" ry="7.5" fill="#9dbf95" transform="rotate(129.704341412673 2870.0 164)" opacity=".93"/><path d="M 2870.0 158 q 2 -5.3999999999999995 1 -9" stroke="#9a8a72" stroke-width="3.4" fill="none" stroke-linecap="round"/></g><circle class="hit" cx="2870.0" cy="190" r="91" fill="none" pointer-events="all"/></g>
<g class="pod" data-row="b" data-i="9" tabindex="0" role="button" style="transform-origin:2870.0px 512px" aria-label="Pod 30, buddy of pod 6"><g transform="translate(2870.0 512) scale(2.2059) translate(-2870.0 -512)"><circle cx="2870.0" cy="512" r="34" fill="#f7dcd2"/><path d="M 2870.0 481 q -3 34 0 62" stroke="#e8c3b8" stroke-width="2.2" fill="none" opacity=".75"/><ellipse cx="2857.0" cy="498" rx="9" ry="6" fill="#fff" opacity="0.45" transform="rotate(-25 2857.0 498)"/><path d="M 2870.0 482 q 2 -6.6 1 -11" stroke="#9a8a72" stroke-width="3.4" fill="none" stroke-linecap="round"/><path d="M 2871.0 474 C 2878.0 461, 2893.0 459, 2896.0 468 C 2891.0 477, 2878.0 478, 2871.0 474 Z" fill="#a9c9a2" opacity=".9" transform="rotate(-3.177621112233833 2871.0 474)"/></g><circle class="hit" cx="2870.0" cy="512" r="91" fill="none" pointer-events="all"/></g>
<text x="2870.0" y="639" text-anchor="middle" fill="#a7a3b4" font-family="ui-monospace, SFMono-Regular, Menlo, monospace" font-size="30" letter-spacing="2" pointer-events="none">30</text>
<circle cx="2566.0" cy="190" r="7" fill="#c9c2d4" opacity=".75"/>
<circle cx="2596.0" cy="190" r="7" fill="#c9c2d4" opacity=".75"/>
<circle cx="2626.0" cy="190" r="7" fill="#c9c2d4" opacity=".75"/>
<circle cx="2566.0" cy="512" r="7" fill="#c9c2d4" opacity=".75"/>
<circle cx="2596.0" cy="512" r="7" fill="#c9c2d4" opacity=".75"/>
<circle cx="2626.0" cy="512" r="7" fill="#c9c2d4" opacity=".75"/>
<g class="smoothie" data-pair="0"><rect class="veil" x="0" y="0" width="3000" height="720" fill="#ffffff" opacity=".93"/><g class="cup" style="transform-origin:1500px 340px"><g transform="translate(1247.0 70.9) scale(2.3)"><defs><linearGradient id="lg0" x1="0" y1="0" x2="0" y2="1"><stop offset="0%" stop-color="#f6c3bd"/><stop offset="48%" stop-color="#dcb6c2"/><stop offset="100%" stop-color="#c3a8c8"/></linearGradient><clipPath id="cp0"><path d="M 44 91.0 L 59 201.0 Q 59 211.0 71 211.0 L 149 211.0 Q 161 211.0 161 201.0 L 176 91.0 Z"/></clipPath></defs><path d="M 34 65.0 L 56 201.0 Q 56 215.0 70 215.0 L 150 215.0 Q 164 215.0 164 201.0 L 186 65.0 Z" fill="#eef2f6" opacity=".55"/><path d="M 44 91.0 L 59 201.0 Q 59 211.0 71 211.0 L 149 211.0 Q 161 211.0 161 201.0 L 176 91.0 Z" fill="url(#lg0)"/><g clip-path="url(#cp0)"><circle cx="88" cy="143.0" r="7" fill="#fff" opacity=".28"/><circle cx="126" cy="171.0" r="5" fill="#fff" opacity=".22"/><circle cx="106" cy="195.0" r="4" fill="#fff" opacity=".2"/></g><ellipse cx="110" cy="91.0" rx="66" ry="9" fill="#e8d0d7"/><path d="M 128 89.0 L 154 19.0" stroke="#d9b9c6" stroke-width="11" stroke-linecap="round" opacity=".92"/><path d="M 50 81.0 L 68 189.0" stroke="#fff" stroke-width="7" stroke-linecap="round" opacity=".4"/><path d="M 34 65.0 L 56 201.0 Q 56 215.0 70 215.0 L 150 215.0 Q 164 215.0 164 201.0 L 186 65.0 Z" fill="none" stroke="#c9d3dd" stroke-width="2.5" opacity=".8"/></g></g><text class="cup-cap" x="1500" y="642" text-anchor="middle">momo + ichijiku</text></g>
<g class="smoothie" data-pair="1"><rect class="veil" x="0" y="0" width="3000" height="720" fill="#ffffff" opacity=".93"/><g class="cup" style="transform-origin:1500px 340px"><g transform="translate(1247.0 70.9) scale(2.3)"><defs><linearGradient id="lg1" x1="0" y1="0" x2="0" y2="1"><stop offset="0%" stop-color="#f09a98"/><stop offset="48%" stop-color="#f0bb99"/><stop offset="100%" stop-color="#f0dc9a"/></linearGradient><clipPath id="cp1"><path d="M 44 91.0 L 59 201.0 Q 59 211.0 71 211.0 L 149 211.0 Q 161 211.0 161 201.0 L 176 91.0 Z"/></clipPath></defs><path d="M 34 65.0 L 56 201.0 Q 56 215.0 70 215.0 L 150 215.0 Q 164 215.0 164 201.0 L 186 65.0 Z" fill="#eef2f6" opacity=".55"/><path d="M 44 91.0 L 59 201.0 Q 59 211.0 71 211.0 L 149 211.0 Q 161 211.0 161 201.0 L 176 91.0 Z" fill="url(#lg1)"/><g clip-path="url(#cp1)"><circle cx="88" cy="143.0" r="7" fill="#fff" opacity=".28"/><circle cx="126" cy="171.0" r="5" fill="#fff" opacity=".22"/><circle cx="106" cy="195.0" r="4" fill="#fff" opacity=".2"/></g><ellipse cx="110" cy="91.0" rx="66" ry="9" fill="#f5d3bd"/><path d="M 128 89.0 L 154 19.0" stroke="#d9b9c6" stroke-width="11" stroke-linecap="round" opacity=".92"/><path d="M 50 81.0 L 68 189.0" stroke="#fff" stroke-width="7" stroke-linecap="round" opacity=".4"/><path d="M 34 65.0 L 56 201.0 Q 56 215.0 70 215.0 L 150 215.0 Q 164 215.0 164 201.0 L 186 65.0 Z" fill="none" stroke="#c9d3dd" stroke-width="2.5" opacity=".8"/></g></g><text class="cup-cap" x="1500" y="642" text-anchor="middle">ichigo + yuzu</text></g>
<g class="smoothie" data-pair="2"><rect class="veil" x="0" y="0" width="3000" height="720" fill="#ffffff" opacity=".93"/><g class="cup" style="transform-origin:1500px 340px"><g transform="translate(1247.0 70.9) scale(2.3)"><defs><linearGradient id="lg2" x1="0" y1="0" x2="0" y2="1"><stop offset="0%" stop-color="#cfe0b6"/><stop offset="48%" stop-color="#cce0ae"/><stop offset="100%" stop-color="#c9e0a6"/></linearGradient><clipPath id="cp2"><path d="M 44 91.0 L 59 201.0 Q 59 211.0 71 211.0 L 149 211.0 Q 161 211.0 161 201.0 L 176 91.0 Z"/></clipPath></defs><path d="M 34 65.0 L 56 201.0 Q 56 215.0 70 215.0 L 150 215.0 Q 164 215.0 164 201.0 L 186 65.0 Z" fill="#eef2f6" opacity=".55"/><path d="M 44 91.0 L 59 201.0 Q 59 211.0 71 211.0 L 149 211.0 Q 161 211.0 161 201.0 L 176 91.0 Z" fill="url(#lg2)"/><g clip-path="url(#cp2)"><circle cx="88" cy="143.0" r="7" fill="#fff" opacity=".28"/><circle cx="126" cy="171.0" r="5" fill="#fff" opacity=".22"/><circle cx="106" cy="195.0" r="4" fill="#fff" opacity=".2"/></g><ellipse cx="110" cy="91.0" rx="66" ry="9" fill="#deebca"/><path d="M 128 89.0 L 154 19.0" stroke="#d9b9c6" stroke-width="11" stroke-linecap="round" opacity=".92"/><path d="M 50 81.0 L 68 189.0" stroke="#fff" stroke-width="7" stroke-linecap="round" opacity=".4"/><path d="M 34 65.0 L 56 201.0 Q 56 215.0 70 215.0 L 150 215.0 Q 164 215.0 164 201.0 L 186 65.0 Z" fill="none" stroke="#c9d3dd" stroke-width="2.5" opacity=".8"/></g></g><text class="cup-cap" x="1500" y="642" text-anchor="middle">meron + raimu</text></g>
<g class="smoothie" data-pair="3"><rect class="veil" x="0" y="0" width="3000" height="720" fill="#ffffff" opacity=".93"/><g class="cup" style="transform-origin:1500px 340px"><g transform="translate(1247.0 70.9) scale(2.3)"><defs><linearGradient id="lg3" x1="0" y1="0" x2="0" y2="1"><stop offset="0%" stop-color="#c7b5dd"/><stop offset="48%" stop-color="#d8ccc6"/><stop offset="100%" stop-color="#e9e3ae"/></linearGradient><clipPath id="cp3"><path d="M 44 91.0 L 59 201.0 Q 59 211.0 71 211.0 L 149 211.0 Q 161 211.0 161 201.0 L 176 91.0 Z"/></clipPath></defs><path d="M 34 65.0 L 56 201.0 Q 56 215.0 70 215.0 L 150 215.0 Q 164 215.0 164 201.0 L 186 65.0 Z" fill="#eef2f6" opacity=".55"/><path d="M 44 91.0 L 59 201.0 Q 59 211.0 71 211.0 L 149 211.0 Q 161 211.0 161 201.0 L 176 91.0 Z" fill="url(#lg3)"/><g clip-path="url(#cp3)"><circle cx="88" cy="143.0" r="7" fill="#fff" opacity=".28"/><circle cx="126" cy="171.0" r="5" fill="#fff" opacity=".22"/><circle cx="106" cy="195.0" r="4" fill="#fff" opacity=".2"/></g><ellipse cx="110" cy="91.0" rx="66" ry="9" fill="#e6deda"/><path d="M 128 89.0 L 154 19.0" stroke="#d9b9c6" stroke-width="11" stroke-linecap="round" opacity=".92"/><path d="M 50 81.0 L 68 189.0" stroke="#fff" stroke-width="7" stroke-linecap="round" opacity=".4"/><path d="M 34 65.0 L 56 201.0 Q 56 215.0 70 215.0 L 150 215.0 Q 164 215.0 164 201.0 L 186 65.0 Z" fill="none" stroke="#c9d3dd" stroke-width="2.5" opacity=".8"/></g></g><text class="cup-cap" x="1500" y="642" text-anchor="middle">budou + youmanashi</text></g>
<g class="smoothie" data-pair="4"><rect class="veil" x="0" y="0" width="3000" height="720" fill="#ffffff" opacity=".93"/><g class="cup" style="transform-origin:1500px 340px"><g transform="translate(1247.0 70.9) scale(2.3)"><defs><linearGradient id="lg4" x1="0" y1="0" x2="0" y2="1"><stop offset="0%" stop-color="#f8cb92"/><stop offset="48%" stop-color="#f2ba9d"/><stop offset="100%" stop-color="#eda8a8"/></linearGradient><clipPath id="cp4"><path d="M 44 91.0 L 59 201.0 Q 59 211.0 71 211.0 L 149 211.0 Q 161 211.0 161 201.0 L 176 91.0 Z"/></clipPath></defs><path d="M 34 65.0 L 56 201.0 Q 56 215.0 70 215.0 L 150 215.0 Q 164 215.0 164 201.0 L 186 65.0 Z" fill="#eef2f6" opacity=".55"/><path d="M 44 91.0 L 59 201.0 Q 59 211.0 71 211.0 L 149 211.0 Q 161 211.0 161 201.0 L 176 91.0 Z" fill="url(#lg4)"/><g clip-path="url(#cp4)"><circle cx="88" cy="143.0" r="7" fill="#fff" opacity=".28"/><circle cx="126" cy="171.0" r="5" fill="#fff" opacity=".22"/><circle cx="106" cy="195.0" r="4" fill="#fff" opacity=".2"/></g><ellipse cx="110" cy="91.0" rx="66" ry="9" fill="#f7d2bf"/><path d="M 128 89.0 L 154 19.0" stroke="#d9b9c6" stroke-width="11" stroke-linecap="round" opacity=".92"/><path d="M 50 81.0 L 68 189.0" stroke="#fff" stroke-width="7" stroke-linecap="round" opacity=".4"/><path d="M 34 65.0 L 56 201.0 Q 56 215.0 70 215.0 L 150 215.0 Q 164 215.0 164 201.0 L 186 65.0 Z" fill="none" stroke="#c9d3dd" stroke-width="2.5" opacity=".8"/></g></g><text class="cup-cap" x="1500" y="642" text-anchor="middle">mikan + suguri</text></g>
<g class="smoothie" data-pair="5"><rect class="veil" x="0" y="0" width="3000" height="720" fill="#ffffff" opacity=".93"/><g class="cup" style="transform-origin:1500px 340px"><g transform="translate(1247.0 70.9) scale(2.3)"><defs><linearGradient id="lg5" x1="0" y1="0" x2="0" y2="1"><stop offset="0%" stop-color="#f5e5a5"/><stop offset="48%" stop-color="#f6e0bc"/><stop offset="100%" stop-color="#f7dcd2"/></linearGradient><clipPath id="cp5"><path d="M 44 91.0 L 59 201.0 Q 59 211.0 71 211.0 L 149 211.0 Q 161 211.0 161 201.0 L 176 91.0 Z"/></clipPath></defs><path d="M 34 65.0 L 56 201.0 Q 56 215.0 70 215.0 L 150 215.0 Q 164 215.0 164 201.0 L 186 65.0 Z" fill="#eef2f6" opacity=".55"/><path d="M 44 91.0 L 59 201.0 Q 59 211.0 71 211.0 L 149 211.0 Q 161 211.0 161 201.0 L 176 91.0 Z" fill="url(#lg5)"/><g clip-path="url(#cp5)"><circle cx="88" cy="143.0" r="7" fill="#fff" opacity=".28"/><circle cx="126" cy="171.0" r="5" fill="#fff" opacity=".22"/><circle cx="106" cy="195.0" r="4" fill="#fff" opacity=".2"/></g><ellipse cx="110" cy="91.0" rx="66" ry="9" fill="#f9ebd3"/><path d="M 128 89.0 L 154 19.0" stroke="#d9b9c6" stroke-width="11" stroke-linecap="round" opacity=".92"/><path d="M 50 81.0 L 68 189.0" stroke="#fff" stroke-width="7" stroke-linecap="round" opacity=".4"/><path d="M 34 65.0 L 56 201.0 Q 56 215.0 70 215.0 L 150 215.0 Q 164 215.0 164 201.0 L 186 65.0 Z" fill="none" stroke="#c9d3dd" stroke-width="2.5" opacity=".8"/></g></g><text class="cup-cap" x="1500" y="642" text-anchor="middle">remon + shiromomo</text></g>
<g class="smoothie" data-pair="6"><rect class="veil" x="0" y="0" width="3000" height="720" fill="#ffffff" opacity=".93"/><g class="cup" style="transform-origin:1500px 340px"><g transform="translate(1247.0 70.9) scale(2.3)"><defs><linearGradient id="lg6" x1="0" y1="0" x2="0" y2="1"><stop offset="0%" stop-color="#eda6a6"/><stop offset="48%" stop-color="#eca38b"/><stop offset="100%" stop-color="#eaa070"/></linearGradient><clipPath id="cp6"><path d="M 44 91.0 L 59 201.0 Q 59 211.0 71 211.0 L 149 211.0 Q 161 211.0 161 201.0 L 176 91.0 Z"/></clipPath></defs><path d="M 34 65.0 L 56 201.0 Q 56 215.0 70 215.0 L 150 215.0 Q 164 215.0 164 201.0 L 186 65.0 Z" fill="#eef2f6" opacity=".55"/><path d="M 44 91.0 L 59 201.0 Q 59 211.0 71 211.0 L 149 211.0 Q 161 211.0 161 201.0 L 176 91.0 Z" fill="url(#lg6)"/><g clip-path="url(#cp6)"><circle cx="88" cy="143.0" r="7" fill="#fff" opacity=".28"/><circle cx="126" cy="171.0" r="5" fill="#fff" opacity=".22"/><circle cx="106" cy="195.0" r="4" fill="#fff" opacity=".2"/></g><ellipse cx="110" cy="91.0" rx="66" ry="9" fill="#f3c3b4"/><path d="M 128 89.0 L 154 19.0" stroke="#d9b9c6" stroke-width="11" stroke-linecap="round" opacity=".92"/><path d="M 50 81.0 L 68 189.0" stroke="#fff" stroke-width="7" stroke-linecap="round" opacity=".4"/><path d="M 34 65.0 L 56 201.0 Q 56 215.0 70 215.0 L 150 215.0 Q 164 215.0 164 201.0 L 186 65.0 Z" fill="none" stroke="#c9d3dd" stroke-width="2.5" opacity=".8"/></g></g><text class="cup-cap" x="1500" y="642" text-anchor="middle">ringo + kurokaki</text></g>
<g class="smoothie" data-pair="7"><rect class="veil" x="0" y="0" width="3000" height="720" fill="#ffffff" opacity=".93"/><g class="cup" style="transform-origin:1500px 340px"><g transform="translate(1247.0 70.9) scale(2.3)"><defs><linearGradient id="lg7" x1="0" y1="0" x2="0" y2="1"><stop offset="0%" stop-color="#dde5c2"/><stop offset="48%" stop-color="#c3d2d1"/><stop offset="100%" stop-color="#a9bfe0"/></linearGradient><clipPath id="cp7"><path d="M 44 91.0 L 59 201.0 Q 59 211.0 71 211.0 L 149 211.0 Q 161 211.0 161 201.0 L 176 91.0 Z"/></clipPath></defs><path d="M 34 65.0 L 56 201.0 Q 56 215.0 70 215.0 L 150 215.0 Q 164 215.0 164 201.0 L 186 65.0 Z" fill="#eef2f6" opacity=".55"/><path d="M 44 91.0 L 59 201.0 Q 59 211.0 71 211.0 L 149 211.0 Q 161 211.0 161 201.0 L 176 91.0 Z" fill="url(#lg7)"/><g clip-path="url(#cp7)"><circle cx="88" cy="143.0" r="7" fill="#fff" opacity=".28"/><circle cx="126" cy="171.0" r="5" fill="#fff" opacity=".22"/><circle cx="106" cy="195.0" r="4" fill="#fff" opacity=".2"/></g><ellipse cx="110" cy="91.0" rx="66" ry="9" fill="#d8e2e1"/><path d="M 128 89.0 L 154 19.0" stroke="#d9b9c6" stroke-width="11" stroke-linecap="round" opacity=".92"/><path d="M 50 81.0 L 68 189.0" stroke="#fff" stroke-width="7" stroke-linecap="round" opacity=".4"/><path d="M 34 65.0 L 56 201.0 Q 56 215.0 70 215.0 L 150 215.0 Q 164 215.0 164 201.0 L 186 65.0 Z" fill="none" stroke="#c9d3dd" stroke-width="2.5" opacity=".8"/></g></g><text class="cup-cap" x="1500" y="642" text-anchor="middle">nashi + buruberi</text></g>
<g class="smoothie" data-pair="8"><rect class="veil" x="0" y="0" width="3000" height="720" fill="#ffffff" opacity=".93"/><g class="cup" style="transform-origin:1500px 340px"><g transform="translate(1247.0 70.9) scale(2.3)"><defs><linearGradient id="lg8" x1="0" y1="0" x2="0" y2="1"><stop offset="0%" stop-color="#dfa7b5"/><stop offset="48%" stop-color="#d2c0a9"/><stop offset="100%" stop-color="#c6da9d"/></linearGradient><clipPath id="cp8"><path d="M 44 91.0 L 59 201.0 Q 59 211.0 71 211.0 L 149 211.0 Q 161 211.0 161 201.0 L 176 91.0 Z"/></clipPath></defs><path d="M 34 65.0 L 56 201.0 Q 56 215.0 70 215.0 L 150 215.0 Q 164 215.0 164 201.0 L 186 65.0 Z" fill="#eef2f6" opacity=".55"/><path d="M 44 91.0 L 59 201.0 Q 59 211.0 71 211.0 L 149 211.0 Q 161 211.0 161 201.0 L 176 91.0 Z" fill="url(#lg8)"/><g clip-path="url(#cp8)"><circle cx="88" cy="143.0" r="7" fill="#fff" opacity=".28"/><circle cx="126" cy="171.0" r="5" fill="#fff" opacity=".22"/><circle cx="106" cy="195.0" r="4" fill="#fff" opacity=".2"/></g><ellipse cx="110" cy="91.0" rx="66" ry="9" fill="#e2d6c7"/><path d="M 128 89.0 L 154 19.0" stroke="#d9b9c6" stroke-width="11" stroke-linecap="round" opacity=".92"/><path d="M 50 81.0 L 68 189.0" stroke="#fff" stroke-width="7" stroke-linecap="round" opacity=".4"/><path d="M 34 65.0 L 56 201.0 Q 56 215.0 70 215.0 L 150 215.0 Q 164 215.0 164 201.0 L 186 65.0 Z" fill="none" stroke="#c9d3dd" stroke-width="2.5" opacity=".8"/></g></g><text class="cup-cap" x="1500" y="642" text-anchor="middle">sumomo + kiui</text></g>
<g class="smoothie" data-pair="9"><rect class="veil" x="0" y="0" width="3000" height="720" fill="#ffffff" opacity=".93"/><g class="cup" style="transform-origin:1500px 340px"><g transform="translate(1247.0 70.9) scale(2.3)"><defs><linearGradient id="lg9" x1="0" y1="0" x2="0" y2="1"><stop offset="0%" stop-color="#f3b489"/><stop offset="48%" stop-color="#eea292"/><stop offset="100%" stop-color="#e8919b"/></linearGradient><clipPath id="cp9"><path d="M 44 91.0 L 59 201.0 Q 59 211.0 71 211.0 L 149 211.0 Q 161 211.0 161 201.0 L 176 91.0 Z"/></clipPath></defs><path d="M 34 65.0 L 56 201.0 Q 56 215.0 70 215.0 L 150 215.0 Q 164 215.0 164 201.0 L 186 65.0 Z" fill="#eef2f6" opacity=".55"/><path d="M 44 91.0 L 59 201.0 Q 59 211.0 71 211.0 L 149 211.0 Q 161 211.0 161 201.0 L 176 91.0 Z" fill="url(#lg9)"/><g clip-path="url(#cp9)"><circle cx="88" cy="143.0" r="7" fill="#fff" opacity=".28"/><circle cx="126" cy="171.0" r="5" fill="#fff" opacity=".22"/><circle cx="106" cy="195.0" r="4" fill="#fff" opacity=".2"/></g><ellipse cx="110" cy="91.0" rx="66" ry="9" fill="#f4c3b8"/><path d="M 128 89.0 L 154 19.0" stroke="#d9b9c6" stroke-width="11" stroke-linecap="round" opacity=".92"/><path d="M 50 81.0 L 68 189.0" stroke="#fff" stroke-width="7" stroke-linecap="round" opacity=".4"/><path d="M 34 65.0 L 56 201.0 Q 56 215.0 70 215.0 L 150 215.0 Q 164 215.0 164 201.0 L 186 65.0 Z" fill="none" stroke="#c9d3dd" stroke-width="2.5" opacity=".8"/></g></g><text class="cup-cap" x="1500" y="642" text-anchor="middle">kaki + sakuranbo</text></g>

<script>
(function () {
  var self = document.currentScript;
  var svg = null;
  if (self) { svg = self.ownerSVGElement || self.closest('svg'); }
  if (!svg) { svg = document.querySelector('svg'); }
  if (!svg) { svg = document.documentElement; }
  var pods  = svg.querySelectorAll('.pod');
  var links = svg.querySelectorAll('.pod-link');
  var PERM = [3, 2, 4, 6, 5, 9, 7, 0, 1, 8];                       // top index maps to bottom index
  var INV  = {};
  PERM.forEach(function (b, t) { INV[b] = t; });

  var smoothies = svg.querySelectorAll('.smoothie');
  var openTimer = null;

  function hideDrink() {
    if (openTimer) { clearTimeout(openTimer); openTimer = null; }
    smoothies.forEach(function (m) { m.classList.remove('show'); });
  }

  function showDrink(topIndex) {
    var m = svg.querySelector('.smoothie[data-pair="' + topIndex + '"]');
    if (!m) { return; }
    m.classList.remove('show');
    void svg.getBoundingClientRect();
    m.classList.add('show');
  }

  smoothies.forEach(function (m) {
    m.addEventListener('click', hideDrink);
  });
  document.addEventListener('keydown', function (e) {
    if (e.key === 'Escape') { hideDrink(); }
  });

  function clear() {
    pods.forEach(function (p) { p.classList.remove('shaking'); });
    links.forEach(function (l) { l.classList.remove('lit'); });
    smoothies.forEach(function (m) { m.classList.remove('show'); });
  }

  function find(row, i) {
    return svg.querySelector('.pod[data-row="' + row + '"][data-i="' + i + '"]');
  }

  function activate(pod) {
    var row = pod.getAttribute('data-row');
    var i   = +pod.getAttribute('data-i');
    var top = row === 't' ? i : INV[i];
    var bot = row === 't' ? PERM[i] : i;
    clear();
    // force a reflow so re-clicking the same pair restarts the animation
    void svg.getBoundingClientRect();
    [find('t', top), find('b', bot)].forEach(function (el) {
      if (el) el.classList.add('shaking');
    });
    var link = svg.querySelector('.pod-link[data-a="' + top + '"][data-b="' + bot + '"]');
    if (link) { link.classList.add('lit'); }
    // let the shake read before the glass arrives
    if (openTimer) { clearTimeout(openTimer); }
    openTimer = setTimeout(function () { showDrink(top); }, 480);
  }

  pods.forEach(function (pod) {
    pod.addEventListener('click', function () { activate(pod); });
    pod.addEventListener('keydown', function (e) {
      if (e.key === 'Enter' || e.key === ' ') { e.preventDefault(); activate(pod); }
    });
    pod.addEventListener('animationend', function () { pod.classList.remove('shaking'); });
  });
})();
</script>

</svg>